PathFileType	4	(X/Y/Z)	/Users/itak/Documents/Research/Walk-IL/dataset/trc/00052_00006.trc
DataRate	CameraRate	NumFrames	NumMarkers	Units	OrigDataRate	OrigDataStartFrame	OrigNumFrames
100.000000	100.000000	4	53	mm	100.000000	331	530
Frame#	Time	RPSI			LPSI			L3			STRN			T10			C7			CLAV			RBAK			LBAK			LSHO			LUPA			LAEL			LAOL			LWTS			LWPS			LFRA			LIFD			LHPS			LHTS			RSHO			RUPA			RAEL			RAOL			RWTS			RWPS			RFRA			RIFD			RHTS			RHPS			RBHD			LFHD			RFHD			LBHD			LHIP			RHIP			RASI			LASI			LKNE			LTHI			LANK			LTIP			LTOE			LMT1			LMT5			LHEE			RKNE			RTHI			RANK			RTIP			RTOE			RMT1			RMT5			RHEE			
		X1	Y1	Z1	X2	Y2	Z2	X3	Y3	Z3	X4	Y4	Z4	X5	Y5	Z5	X6	Y6	Z6	X7	Y7	Z7	X8	Y8	Z8	X9	Y9	Z9	X10	Y10	Z10	X11	Y11	Z11	X12	Y12	Z12	X13	Y13	Z13	X14	Y14	Z14	X15	Y15	Z15	X16	Y16	Z16	X17	Y17	Z17	X18	Y18	Z18	X19	Y19	Z19	X20	Y20	Z20	X21	Y21	Z21	X22	Y22	Z22	X23	Y23	Z23	X24	Y24	Z24	X25	Y25	Z25	X26	Y26	Z26	X27	Y27	Z27	X28	Y28	Z28	X29	Y29	Z29	X30	Y30	Z30	X31	Y31	Z31	X32	Y32	Z32	X33	Y33	Z33	X34	Y34	Z34	X35	Y35	Z35	X36	Y36	Z36	X37	Y37	Z37	X38	Y38	Z38	X39	Y39	Z39	X40	Y40	Z40	X41	Y41	Z41	X42	Y42	Z42	X43	Y43	Z43	X44	Y44	Z44	X45	Y45	Z45	X46	Y46	Z46	X47	Y47	Z47	X48	Y48	Z48	X49	Y49	Z49	X50	Y50	Z50	X51	Y51	Z51	X52	Y52	Z52	X53	Y53	Z53	

332	3.31	-231.6483306884766	1020.835998535156	-153.1925811767578	-239.2642364501953	1006.527954101562	-326.6159362792969	-227.6436157226562	1079.005859375	-250.3530883789062	49.65720748901367	1252.561279296875	-240.4355163574219	-224.6364135742188	1212.302001953125	-259.2236938476562	-142.78759765625	1473.387451171875	-256.0347290039062	29.58592987060547	1369.530029296875	-242.0759735107422	-220.0301055908203	1340.177368164062	-186.7104949951172	-158.2120056152344	1437.360107421875	-359.7702026367188	-48.78543090820312	1433.851928710938	-422.4856567382812	-61.15407943725586	1308.005493164062	-503.0450439453125	-36.9427604675293	1089.915283203125	-518.0502319335938	-113.5243072509766	1077.101928710938	-445.2288208007812	53.88624572753906	862.8431396484375	-418.2972106933594	8.723081588745117	842.6693115234375	-486.1681518554688	-9.672579765319824	981.3787231445312	-513.1943969726562	74.35573577880859	679.3517456054688	-380.176513671875	44.4151496887207	764.3848266601562	-467.8719177246094	79.53645324707031	781.6065063476562	-408.4103393554688	-93.04753875732422	1429.534790039062	-76.99702453613281	-115.7068176269531	1362.39990234375	-16.29887008666992	-181.3815002441406	1107.839599609375	18.75643730163574	-151.7500457763672	1078.005615234375	-72.95665740966797	-46.42977523803711	849.5687255859375	5.32297945022583	-122.4049911499023	836.1256713867188	45.919677734375	-175.2162017822266	1024.746826171875	31.16010856628418	-39.08770751953125	660.7549438476562	-8.584268569946289	-25.29112815856934	746.8687744140625	8.742124557495117	-88.70183563232422	744.7799072265625	53.07546234130859	-97.62850952148438	1644.159790039062	-309.21875	55.88315963745117	1675.358642578125	-160.5377197265625	74.17799377441406	1686.878540039062	-284.8754272460938	-107.3562088012695	1624.8720703125	-173.0152587890625	-142.2537231445312	935.896240234375	-417.9712829589844	-165.3005828857422	951.4274291992188	-73.58568572998047	-41.64352416992188	966.127197265625	-97.79584503173828	-29.95685768127441	941.67919921875	-363.1681823730469	-85.65152740478516	470.1930847167969	-331.7033996582031	-108.2954635620117	610.2174072265625	-382.2522888183594	-296.3040161132812	46.61808776855469	-338.6788024902344	-198.1581115722656	240.5073394775391	-346.8857421875	-95.32945251464844	42.51783752441406	-331.5292663574219	-140.9293670654297	39.97151184082031	-278.3683776855469	-192.7247772216797	35.05483245849609	-378.4800109863281	-351.5972595214844	48.9636344909668	-263.263671875	37.58974838256836	533.2303466796875	-67.66921234130859	-45.89323043823242	792.8309936523438	-49.69928741455078	70.02680206298828	35.98289489746094	-54.99469757080078	46.03025817871094	409.293701171875	-55.93587493896484	273.2053527832031	85.45059967041016	-109.7368774414062	208.5373382568359	83.32238006591797	-142.2688751220703	194.8355407714844	55.92011642456055	-49.91463851928711	15.63162326812744	40.18303680419922	-106.9766159057617	
333	3.32	-239.5914306640625	1021.582092285156	-154.5756225585938	-246.4241790771484	1007.267150878906	-328.0758666992188	-235.3383483886719	1080.187133789062	-251.7337188720703	42.09428787231445	1253.582153320312	-240.7310028076172	-232.1979522705078	1213.454223632812	-260.4769897460938	-150.2211303710938	1474.469604492188	-257.0206298828125	22.09899711608887	1370.562377929688	-242.5017700195312	-227.7766418457031	1341.297607421875	-187.966064453125	-165.234130859375	1438.41943359375	-360.8080444335938	-55.59273529052734	1434.779541015625	-423.1697082519531	-67.86922454833984	1309.056518554688	-503.915771484375	-43.98009490966797	1090.957641601562	-519.4065551757812	-120.9175720214844	1078.163818359375	-446.9093933105469	45.68822479248047	863.27001953125	-420.0834655761719	0.6887398958206177	843.4158935546875	-488.1575927734375	-17.15994262695312	982.2998046875	-514.7913818359375	65.51934814453125	679.6395874023438	-382.3607177734375	36.00630569458008	764.9554443359375	-469.9538269042969	71.0731201171875	781.9462890625	-410.3670959472656	-101.0373764038086	1430.495727539062	-77.76706695556641	-124.0281829833984	1363.281982421875	-17.21993446350098	-189.4703521728516	1108.467407226562	17.35049057006836	-159.415771484375	1078.810913085938	-74.38855743408203	-54.01739120483398	850.5228271484375	4.246882915496826	-130.2118072509766	836.803466796875	44.37664413452148	-183.1924438476562	1025.359130859375	29.46183395385742	-45.87201690673828	661.8486938476562	-9.760367393493652	-32.50305938720703	747.9598999023438	7.739400863647461	-96.30335998535156	745.5538940429688	51.62447357177734	-104.6284484863281	1645.249267578125	-310.00927734375	48.78261947631836	1676.269897460938	-161.1729125976562	67.23863220214844	1687.64794921875	-285.5242614746094	-114.5687026977539	1626.0927734375	-173.8190307617188	-149.3691864013672	936.9734497070312	-418.8821411132812	-173.6399230957031	952.2742309570312	-74.56216430664062	-49.86594009399414	967.2667846679688	-97.97930145263672	-36.80527496337891	942.8106689453125	-363.2946166992188	-88.44174194335938	471.6006164550781	-331.7389831542969	-111.9619445800781	611.3328247070312	-382.6700744628906	-296.3207702636719	46.62205123901367	-338.7117309570312	-199.2585144042969	240.9999694824219	-346.8729553222656	-95.24990081787109	42.52051544189453	-331.4178466796875	-140.9442901611328	39.89762496948242	-278.2992553710938	-192.7326202392578	35.18900299072266	-378.3845520019531	-351.5128784179688	48.77311325073242	-263.2898254394531	30.28159141540527	534.3626708984375	-67.27135467529297	-54.21065139770508	793.8304443359375	-49.39336013793945	55.9045524597168	37.33884429931641	-53.07920455932617	37.59560012817383	410.3739929199219	-55.38884735107422	259.3442077636719	86.30527496337891	-106.9321441650391	195.0546417236328	83.08507537841797	-139.8939819335938	180.2617797851562	57.83222198486328	-47.06709289550781	1.991684317588806	40.76586532592773	-105.5413055419922	
334	3.33	-247.3790130615234	1022.456604003906	-155.8844299316406	-253.4284362792969	1008.106262207031	-329.4514465332031	-242.8536071777344	1081.44970703125	-253.0155181884766	34.62274551391602	1254.777465820312	-240.9217376708984	-239.6518402099609	1214.721801757812	-261.5711975097656	-157.5938568115234	1475.642944335938	-257.8968505859375	14.69169235229492	1371.772583007812	-242.8353424072266	-235.4384460449219	1342.5341796875	-189.073486328125	-172.2541809082031	1439.596557617188	-361.7192687988281	-62.39434432983398	1435.872680664062	-423.7473754882812	-74.58843231201172	1310.260620117188	-504.6484069824219	-50.98900604248047	1092.1962890625	-520.5701293945312	-128.2084045410156	1079.405883789062	-448.3485412597656	37.55015563964844	863.8226928710938	-421.8821716308594	-7.312064647674561	844.3546142578125	-490.14990234375	-24.62026786804199	983.4212646484375	-516.2728271484375	56.72446060180664	680.019287109375	-384.7389526367188	27.6190242767334	765.6981201171875	-472.1207885742188	62.64574813842773	782.3901977539062	-412.41845703125	-108.9419479370117	1431.667114257812	-78.43930053710938	-132.2332000732422	1364.373168945312	-18.02285385131836	-197.3234405517578	1109.287475585938	16.04471588134766	-166.9331512451172	1079.846923828125	-75.72154235839844	-61.48488616943359	851.6251831054688	3.22404932975769	-137.8554382324219	837.7028198242188	42.97417068481445	-190.9648284912109	1026.214599609375	27.86368560791016	-52.718505859375	663.082763671875	-10.82825183868408	-39.70898818969727	749.1671142578125	6.792801856994629	-103.8001861572266	746.5347290039062	50.31389999389648	-111.5902099609375	1646.452514648438	-310.7284545898438	41.73122787475586	1677.305297851562	-161.7458190917969	60.34912109375	1688.531860351562	-286.1118774414062	-121.7342376708984	1627.450805664062	-174.5475616455078	-156.1100463867188	938.1061401367188	-419.6785583496094	-181.8130187988281	953.3182983398438	-75.42308807373047	-57.95053482055664	968.5736083984375	-98.05774688720703	-43.47598266601562	944.087646484375	-363.3021545410156	-91.28060150146484	473.0583801269531	-331.7686157226562	-115.6201095581055	612.5093383789062	-383.0227661132812	-296.3421936035156	46.63809585571289	-338.7849731445312	-200.3847198486328	241.5883483886719	-346.8831787109375	-95.17216491699219	42.53834915161133	-331.2941284179688	-140.9591979980469	39.84369277954102	-278.2455139160156	-192.7453918457031	35.35097503662109	-378.3049926757812	-351.4125671386719	48.64409255981445	-263.361328125	23.16966438293457	535.6585083007812	-67.09883117675781	-62.25019454956055	794.9847412109375	-49.20754623413086	39.64298248291016	38.8173942565918	-51.63576126098633	28.80691528320312	411.4383850097656	-55.01716995239258	243.7346343994141	86.43526458740234	-103.7490539550781	179.9371185302734	82.30753326416016	-137.4314117431641	163.6128082275391	59.54910659790039	-44.18405914306641	-13.53395652770996	41.54674530029297	-104.7724761962891	
335	3.34	-255.0005340576172	1023.445983886719	-157.1300659179688	-260.2705383300781	1009.028015136719	-330.7495727539062	-250.1803436279297	1082.752685546875	-254.2160797119141	27.24716758728027	1256.12353515625	-241.0196228027344	-246.9785766601562	1216.064819335938	-262.5265197753906	-164.9037475585938	1476.8818359375	-258.6709289550781	7.365248680114746	1373.132934570312	-243.0838317871094	-242.9991302490234	1343.851318359375	-190.0438537597656	-179.2717895507812	1440.865844726562	-362.5099182128906	-69.19916534423828	1437.123657226562	-424.2273254394531	-81.31203460693359	1311.614990234375	-505.2624816894531	-57.98298263549805	1093.625732421875	-521.5407104492188	-135.4186096191406	1080.8203125	-449.5389099121094	29.48489761352539	864.5007934570312	-423.6777648925781	-15.26721668243408	845.4929809570312	-492.1318054199219	-32.04714202880859	984.7438354492188	-517.6309204101562	47.94460678100586	680.479736328125	-387.3091430664062	19.25964736938477	766.6197509765625	-474.367431640625	54.25046539306641	782.926513671875	-414.5441589355469	-116.7678680419922	1433.027954101562	-79.02886199951172	-140.31494140625	1365.659301757812	-18.71576690673828	-204.9514923095703	1110.290161132812	14.85292911529541	-174.3046112060547	1081.105834960938	-76.94902801513672	-68.82763671875	852.8697509765625	2.260711431503296	-145.3272705078125	838.823486328125	41.7196159362793	-198.5548706054688	1027.302734375	26.3856201171875	-59.66115951538086	664.4368286132812	-11.80722999572754	-46.91651153564453	750.4715576171875	5.890034198760986	-111.182746887207	747.7151489257812	49.1486701965332	-118.5198135375977	1647.754028320312	-311.3792724609375	34.73014068603516	1678.436157226562	-162.2597351074219	53.50973892211914	1689.508056640625	-286.6398620605469	-128.8506317138672	1628.921508789062	-175.2013244628906	-162.3709106445312	939.249267578125	-420.3534851074219	-189.8196716308594	954.5318603515625	-76.18548583984375	-65.89620971679688	969.9942016601562	-98.05706787109375	-49.97605895996094	945.470458984375	-363.210205078125	-94.31755065917969	474.5439758300781	-331.7991333007812	-119.4285125732422	613.716064453125	-383.3154296875	-296.3851928710938	46.64098358154297	-338.8887329101562	-201.6163787841797	242.2410125732422	-346.904541015625	-95.11624145507812	42.58500289916992	-331.1561279296875	-140.9859161376953	39.80643463134766	-278.1991271972656	-192.7752838134766	35.54413986206055	-378.2309265136719	-351.3276062011719	48.51926040649414	-263.4632568359375	16.16668510437012	537.070068359375	-67.09207153320312	-70.05268096923828	796.261474609375	-49.16579437255859	21.43441772460938	40.41365814208984	-50.70191192626953	19.57904243469238	412.4688720703125	-54.76314926147461	226.51123046875	85.9241943359375	-100.2509994506836	163.3195495605469	81.11944580078125	-134.9239959716797	145.0696105957031	60.99784469604492	-41.35613632202148	-30.78523063659668	42.59580993652344	-104.6750946044922	
